<svg width="116" height="99" viewBox="0 0 116 99" fill="none" xmlns="http://www.w3.org/2000/svg">
<path d="M35.5 25.5C37.6667 19.6667 45.5 7 57.5 3" stroke="white" stroke-width="5" stroke-linecap="round"/>
<path d="M38.5 94.5C30.1667 95.8333 11.4 96.3 3 87.5C2.83333 83.6667 3.3 75 6.5 71M39.5 70.5C31.6667 72.8333 12.5 77.5 3.5 54C3.5 53.6 3.5 47.5 3.5 44.5C3.33333 40.5 5 32.4 13 32C23 31.5 44 33.5 49.5 44.5" stroke="white" stroke-width="5" stroke-linecap="round"/>
<path d="M41 79C39 81.3333 35.7 87.7 38.5 94.5" stroke="white" stroke-width="5" stroke-linecap="round"/>
<path d="M50 79C50.8889 84.019 53.7333 94.4457 58 96" stroke="white" stroke-width="5" stroke-linecap="round"/>
<path d="M80.5 25.5C78.3333 19.6667 70.5 7 58.5 3" stroke="white" stroke-width="5" stroke-linecap="round"/>
<path d="M77.5 94.5C85.8333 95.8333 104.6 96.3 113 87.5C113.167 83.6667 112.7 75 109.5 71M76.5 70.5C84.3333 72.8333 103.5 77.5 112.5 54C112.5 53.6 112.5 47.5 112.5 44.5C112.667 40.5 111 32.4 103 32C93 31.5 72 33.5 66.5 44.5" stroke="white" stroke-width="5" stroke-linecap="round"/>
<path d="M75 79C77 81.3333 80.3 87.7 77.5 94.5" stroke="white" stroke-width="5" stroke-linecap="round"/>
<path d="M66 79C65.1111 84.019 62.2667 94.4457 58 96" stroke="white" stroke-width="5" stroke-linecap="round"/>
</svg>
