<?xml version="1.0" encoding="UTF-8" standalone="no"?>
<svg
   role="img"
   viewBox="0 0 24 24"
   version="1.1"
   id="svg6"
   sodipodi:docname="soundcloud.svg"
   inkscape:version="1.2.1 (9c6d41e410, 2022-07-14)"
   xmlns:inkscape="http://www.inkscape.org/namespaces/inkscape"
   xmlns:sodipodi="http://sodipodi.sourceforge.net/DTD/sodipodi-0.dtd"
   xmlns="http://www.w3.org/2000/svg"
   xmlns:svg="http://www.w3.org/2000/svg">
  <defs
     id="defs10" />
  <sodipodi:namedview
     id="namedview8"
     pagecolor="#ffffff"
     bordercolor="#000000"
     borderopacity="0.25"
     inkscape:showpageshadow="2"
     inkscape:pageopacity="0.0"
     inkscape:pagecheckerboard="0"
     inkscape:deskcolor="#d1d1d1"
     showgrid="false"
     inkscape:zoom="16"
     inkscape:cx="8.28125"
     inkscape:cy="18"
     inkscape:window-width="1280"
     inkscape:window-height="661"
     inkscape:window-x="942"
     inkscape:window-y="299"
     inkscape:window-maximized="0"
     inkscape:current-layer="svg6" />
  <title
     id="title2">SoundCloud</title>
  <path
     d="m 1.6781959,12.214541 c -0.048629,0 -0.08963,0.04386 -0.096305,0.09535 l -0.2221691,2.053873 0.2221691,2.00715 c 0.00667,0.0553 0.047676,0.09344 0.096305,0.09344 0.047676,0 0.085816,-0.03814 0.094398,-0.09344 L 2.0157404,14.363765 1.7582912,12.309892 c 0,-0.05435 -0.042908,-0.09535 -0.085816,-0.09535 m -0.85721065,0.78951 c -0.057211,0 -0.08677,0.03528 -0.099166,0.08963 l -0.1582836,1.270083 0.1573301,1.247198 c 0,0.05244 0.042908,0.08963 0.085816,0.08963 0.042908,0 0.084863,-0.04291 0.099166,-0.09917 L 1.1003653,14.343736 0.90012705,13.071746 c 0,-0.05816 -0.041955,-0.08582 -0.085816,-0.08582 M 2.5592442,11.814055 c -0.058164,0 -0.1144219,0.04291 -0.1144219,0.09917 l -0.2002382,2.44386 0.2145409,2.343741 c 0,0.05721 0.042908,0.114422 0.1134684,0.114422 0.058164,0 0.1001191,-0.05816 0.1153753,-0.114422 L 2.9301616,14.341834 2.6879687,11.912277 c -0.015256,-0.05721 -0.058164,-0.114422 -0.1153753,-0.114422 m 0.901072,-0.08486 c -0.071514,0 -0.1287246,0.05721 -0.1430273,0.128724 L 3.1466096,14.359 3.3468479,16.784743 c 0.015256,0.07342 0.071514,0.131585 0.1420738,0.131585 0.071514,0 0.1287245,-0.05816 0.1430273,-0.143027 L 3.8607927,14.358997 3.631949,11.857926 c 0,-0.07151 -0.057211,-0.128724 -0.1287246,-0.128724 z m 1.1013103,0.343265 c -0.00477,-0.08582 -0.071514,-0.142073 -0.1516089,-0.142073 -0.085816,0 -0.1506555,0.05721 -0.1563766,0.142073 l -0.2069128,2.317043 0.1907031,2.44386 c 0,0.08582 0.071514,0.149702 0.1516089,0.149702 0.07056,0 0.1411203,-0.06484 0.1411203,-0.150656 l 0.216448,-2.44386 -0.216448,-2.330391 z m 0.771394,-1.629557 c -0.096305,0 -0.1716328,0.08582 -0.1716328,0.172586 l -0.2002382,3.77306 0.1783073,2.44386 c 0,0.08582 0.076281,0.156377 0.1716328,0.156377 0.089631,0 0.1659117,-0.08582 0.1716328,-0.171633 L 5.6953563,14.357093 5.4960716,10.56973 C 5.4884416,10.47056 5.4121626,10.398097 5.3244388,10.398097 M 6.2388601,9.526581 c -0.1001191,0 -0.1859355,0.085816 -0.1935636,0.184982 l -0.1716328,4.645527 0.15733,2.429557 c 0,0.114422 0.085816,0.199285 0.1859355,0.199285 0.099166,0 0.184982,-0.08486 0.2002383,-0.199285 L 6.6011959,14.35709 6.418121,9.7268193 C 6.4028647,9.6123975 6.3180019,9.526581 6.2178828,9.526581 M 7.1609095,9.0984527 c -0.1153754,0 -0.2011918,0.084863 -0.214541,0.1992847 l -0.15733,5.0297936 0.15733,2.402859 c 0.013349,0.113468 0.099166,0.214541 0.214541,0.214541 0.1134683,0 0.214541,-0.100119 0.214541,-0.214541 L 7.561386,14.327531 7.3744969,9.2977374 c 0,-0.1144218 -0.1001191,-0.214541 -0.2145409,-0.214541 m 1.1871266,0.042908 c 0,-0.1287245 -0.1001191,-0.2288437 -0.2288435,-0.2288437 -0.1134685,0 -0.2288438,0.1001192 -0.2288438,0.2288437 l -0.1420738,5.1880776 0.1420738,2.386649 c 0.015256,0.128724 0.1153753,0.228844 0.2440999,0.228844 0.1287246,0 0.2288438,-0.10012 0.2288438,-0.228844 L 8.5187154,14.314182 8.362339,9.1118018 Z m 0.7141831,-0.127771 c -0.1287246,0 -0.2431464,0.1134683 -0.2431464,0.2421929 l -0.1430274,5.0746087 0.1430274,2.358044 c 0,0.143027 0.1144218,0.243146 0.2431464,0.243146 0.1287246,0 0.2431464,-0.114421 0.2431464,-0.257449 L 9.4474391,14.299879 9.2901094,9.239573 c 0,-0.1411204 -0.1144219,-0.2574492 -0.2584026,-0.2574492 M 9.98999,9.1404074 c -0.1563769,0 -0.270799,0.1287245 -0.270799,0.2717519 l -0.09821,4.9039297 0.128725,2.358997 c 0,0.142074 0.113468,0.264124 0.270798,0.264124 0.142074,0 0.258403,-0.114422 0.270799,-0.271752 L 10.406676,14.33802 10.277951,9.463649 C 10.266509,9.3072726 10.149227,9.1918971 10.006199,9.1918971 m 1.128963,-0.901072 c -0.04291,-0.027652 -0.100119,-0.041955 -0.15733,-0.041955 -0.05721,0 -0.113469,0.014303 -0.15733,0.041955 -0.08582,0.05149 -0.142074,0.1430273 -0.142074,0.2431465 v 0.058164 l -0.09917,5.7668614 0.109654,2.335159 v 0.0076 c 0.0076,0.05721 0.02861,0.128725 0.07056,0.171633 0.0553,0.05816 0.135399,0.09917 0.223122,0.09917 0.07628,0 0.150656,-0.04196 0.199285,-0.08582 0.0553,-0.05721 0.08677,-0.128724 0.08677,-0.214541 l 0.0143,-0.228843 0.111561,-2.100595 -0.128725,-5.8030948 c 0,-0.099166 -0.05816,-0.1840285 -0.128724,-0.2278901 z m 0.959236,-0.521573 c -0.04291,-0.042908 -0.08582,-0.058164 -0.143027,-0.058164 -0.07056,0 -0.142074,0.015256 -0.199285,0.058164 -0.07151,0.058165 -0.113468,0.1430273 -0.113468,0.2288438 v 0.027652 l -0.130632,6.3017831 0.07247,1.158521 0.05817,1.129916 c 0,0.156377 0.14112,0.299404 0.312753,0.299404 0.172586,0 0.31466,-0.143027 0.31466,-0.313707 l 0.143027,-2.301786 -0.143027,-6.3284815 c 0,-0.1144219 -0.07056,-0.2107269 -0.15733,-0.2641238 m 8.518707,3.6014273 c -0.386174,0 -0.758045,0.082 -1.086055,0.221216 -0.228843,-2.5306299 -2.345647,-4.515849 -4.946837,-4.515849 -0.628367,0 -1.244338,0.1287246 -1.801191,0.342312 -0.214541,0.085816 -0.257449,0.1716328 -0.271752,0.3423121 v 8.9325319 c 0.01526,0.171633 0.143027,0.31466 0.31466,0.328963 h 7.804524 c 1.543733,0.01526 2.80142,-1.228128 2.80142,-2.786172 0,-1.558044 -1.257687,-2.814777 -2.801428,-2.814777"
     id="path4"
     style="fill:#ffffff;stroke-width:0.953515;fill-opacity:0;stroke:#ffffff;stroke-opacity:1" />
</svg>
