<?xml version="1.0" encoding="UTF-8" standalone="no"?>
<svg
   role="img"
   viewBox="0 0 24 24"
   version="1.1"
   id="svg6"
   sodipodi:docname="youtube.svg"
   inkscape:version="1.2.1 (9c6d41e410, 2022-07-14)"
   xmlns:inkscape="http://www.inkscape.org/namespaces/inkscape"
   xmlns:sodipodi="http://sodipodi.sourceforge.net/DTD/sodipodi-0.dtd"
   xmlns="http://www.w3.org/2000/svg"
   xmlns:svg="http://www.w3.org/2000/svg">
  <defs
     id="defs10" />
  <sodipodi:namedview
     id="namedview8"
     pagecolor="#ffffff"
     bordercolor="#000000"
     borderopacity="0.25"
     inkscape:showpageshadow="2"
     inkscape:pageopacity="0.0"
     inkscape:pagecheckerboard="0"
     inkscape:deskcolor="#d1d1d1"
     showgrid="false"
     inkscape:zoom="25.662083"
     inkscape:cx="10.618779"
     inkscape:cy="14.125899"
     inkscape:window-width="1280"
     inkscape:window-height="834"
     inkscape:window-x="547"
     inkscape:window-y="79"
     inkscape:window-maximized="0"
     inkscape:current-layer="svg6" />
  <title
     id="title2">YouTube</title>
  <path
     d="M 22.711097,6.5838999 A 2.8095903,2.8095903 0 0 0 20.734323,4.594084 C 18.991371,4.1236453 12,4.1236453 12,4.1236453 c 0,0 -6.9913711,0 -8.7352548,0.4704387 A 2.8105219,2.8105219 0 0 0 1.2889027,6.5838999 C 0.82125875,8.3389623 0.82125875,12 0.82125875,12 c 0,0 0,3.661038 0.46764395,5.4161 a 2.8095903,2.8095903 0 0 0 1.9767742,1.989816 C 5.0086289,19.876355 12,19.876355 12,19.876355 c 0,0 6.991371,0 8.735254,-0.470439 A 2.8086587,2.8086587 0 0 0 22.712029,17.4161 C 23.178741,15.661038 23.178741,12 23.178741,12 c 0,0 0,-3.6610377 -0.467644,-5.4161001 z M 9.7130162,15.323813 V 8.6761876 L 15.556703,12 Z"
     id="path4"
     style="fill:#ffffff;fill-opacity:0;stroke-width:1.032;stroke-dasharray:none;stroke:#ffffff;stroke-opacity:1;stroke-linejoin:round" />
</svg>
